<svg width="229" height="229" viewBox="0 0 229 229" fill="none" xmlns="http://www.w3.org/2000/svg">
<ellipse cx="114.503" cy="114.181" rx="114.503" ry="114.181" fill="#B10407"/>
<path d="M87.6179 72.3093C87.6179 80.6293 80.6124 87.6178 71.6651 87.6178C62.7178 87.6178 55.7124 80.6293 55.7124 72.3093C55.7124 63.9893 62.7178 57.0007 71.6651 57.0007C80.6124 57.0007 87.6179 63.9893 87.6179 72.3093Z" stroke="white" stroke-width="9"/>
<path d="M130.456 157.985C130.456 166.305 123.45 173.294 114.503 173.294C105.556 173.294 98.5503 166.305 98.5503 157.985C98.5503 149.665 105.556 142.677 114.503 142.677C123.45 142.677 130.456 149.665 130.456 157.985Z" stroke="white" stroke-width="9"/>
<path d="M71.5039 97.7544C71.5039 97.7544 63.3443 96.0366 60.7139 95.4998L89.2188 152.349C89.2188 152.349 92.8692 144.243 94.3723 142.203L71.5039 97.7544Z" fill="white"/>
<path d="M157.824 97.7544C157.824 97.7544 165.984 96.0366 168.614 95.4998L140.109 152.349C140.109 152.349 136.459 144.243 134.956 142.203L157.824 97.7544Z" fill="white"/>
<path d="M173.938 72.3093C173.938 80.6293 166.932 87.6178 157.985 87.6178C149.038 87.6178 142.032 80.6293 142.032 72.3093C142.032 63.9893 149.038 57.0007 157.985 57.0007C166.932 57.0007 173.938 63.9893 173.938 72.3093Z" stroke="white" stroke-width="9"/>
<path d="M97.2713 77.3015C97.2713 77.3015 93.1379 85.3538 91.6348 88.0915L114.181 131.735L136.888 88.0915L131.091 77.3015L114.181 111.121L97.2713 77.3015Z" fill="#FEFEFE"/>
<path d="M117.563 140.25L144.686 86.6423L152.993 90.4954L126.039 144.941L117.563 140.25Z" fill="white"/>
<path d="M117.563 140.25L144.686 86.6423L152.993 90.4954L126.039 144.941L117.563 140.25Z" fill="white"/>
<path d="M117.563 140.25L144.686 86.6423L152.993 90.4954L126.039 144.941L117.563 140.25Z" stroke="black"/>
<path d="M110.477 140.224L83.6 86.3201L75.369 90.1944L102.078 144.94L110.477 140.224Z" fill="white"/>
<path d="M110.477 140.224L83.6 86.3201L75.369 90.1944L102.078 144.94L110.477 140.224Z" fill="white"/>
<path d="M110.477 140.224L83.6 86.3201L75.369 90.1944L102.078 144.94L110.477 140.224Z" stroke="black"/>
</svg>
